<svg xmlns="http://www.w3.org/2000/svg" viewBox="0 0 512 512" width="512" height="512">
<defs><linearGradient id="bg" x1="0" y1="0" x2="1" y2="1"><stop offset="0" stop-color="#dcf9f8"/><stop offset=".55" stop-color="#9eeaee"/><stop offset="1" stop-color="#5fdbe2"/></linearGradient><linearGradient id="core" x1="0" y1="0" x2="0" y2="1"><stop offset="0" stop-color="#5b9cf5"/><stop offset=".5" stop-color="#2f6fe0"/><stop offset=".52" stop-color="#1f5fd8"/><stop offset="1" stop-color="#2a6ae0"/></linearGradient></defs>
<rect width="512" height="512" fill="url(#bg)"/>
<g fill="#ffffff" fill-opacity="0.75"><circle cx="5.0" cy="-7.3" r="3.9"/><circle cx="20.0" cy="-7.3" r="4.0"/><circle cx="35.0" cy="-7.3" r="4.1"/><circle cx="50.0" cy="-7.3" r="4.2"/><circle cx="65.0" cy="-7.3" r="4.2"/><circle cx="80.0" cy="-7.3" r="4.2"/><circle cx="95.0" cy="-7.3" r="4.2"/><circle cx="110.0" cy="-7.3" r="4.1"/><circle cx="125.0" cy="-7.3" r="4.0"/><circle cx="140.0" cy="-7.3" r="3.8"/><circle cx="155.0" cy="-7.3" r="3.7"/><circle cx="170.0" cy="-7.3" r="3.5"/><circle cx="185.0" cy="-7.3" r="3.3"/><circle cx="200.0" cy="-7.3" r="3.1"/><circle cx="215.0" cy="-7.3" r="2.9"/><circle cx="230.0" cy="-7.3" r="2.6"/><circle cx="245.0" cy="-7.3" r="2.3"/><circle cx="260.0" cy="-7.3" r="2.0"/><circle cx="275.0" cy="-7.3" r="1.7"/><circle cx="290.0" cy="-7.3" r="1.3"/><circle cx="305.0" cy="-7.3" r="0.8"/><circle cx="-2.5" cy="5.8" r="3.9"/><circle cx="12.5" cy="5.8" r="4.1"/><circle cx="27.5" cy="5.8" r="4.2"/><circle cx="42.5" cy="5.8" r="4.3"/><circle cx="57.5" cy="5.8" r="4.4"/><circle cx="72.5" cy="5.8" r="4.4"/><circle cx="87.5" cy="5.8" r="4.4"/><circle cx="102.5" cy="5.8" r="4.3"/><circle cx="117.5" cy="5.8" r="4.2"/><circle cx="132.5" cy="5.8" r="4.0"/><circle cx="147.5" cy="5.8" r="3.9"/><circle cx="162.5" cy="5.8" r="3.7"/><circle cx="177.5" cy="5.8" r="3.5"/><circle cx="192.5" cy="5.8" r="3.3"/><circle cx="207.5" cy="5.8" r="3.1"/><circle cx="222.5" cy="5.8" r="2.8"/><circle cx="237.5" cy="5.8" r="2.6"/><circle cx="252.5" cy="5.8" r="2.3"/><circle cx="267.5" cy="5.8" r="2.0"/><circle cx="282.5" cy="5.8" r="1.6"/><circle cx="297.5" cy="5.8" r="1.2"/><circle cx="312.5" cy="5.8" r="0.7"/><circle cx="5.0" cy="18.8" r="4.1"/><circle cx="20.0" cy="18.8" r="4.3"/><circle cx="35.0" cy="18.8" r="4.4"/><circle cx="50.0" cy="18.8" r="4.5"/><circle cx="65.0" cy="18.8" r="4.6"/><circle cx="80.0" cy="18.8" r="4.5"/><circle cx="95.0" cy="18.8" r="4.5"/><circle cx="110.0" cy="18.8" r="4.4"/><circle cx="125.0" cy="18.8" r="4.2"/><circle cx="140.0" cy="18.8" r="4.1"/><circle cx="155.0" cy="18.8" r="3.9"/><circle cx="170.0" cy="18.8" r="3.7"/><circle cx="185.0" cy="18.8" r="3.5"/><circle cx="200.0" cy="18.8" r="3.3"/><circle cx="215.0" cy="18.8" r="3.0"/><circle cx="230.0" cy="18.8" r="2.8"/><circle cx="245.0" cy="18.8" r="2.5"/><circle cx="260.0" cy="18.8" r="2.2"/><circle cx="275.0" cy="18.8" r="1.9"/><circle cx="290.0" cy="18.8" r="1.5"/><circle cx="305.0" cy="18.8" r="1.1"/><circle cx="-2.5" cy="31.9" r="4.1"/><circle cx="12.5" cy="31.9" r="4.3"/><circle cx="27.5" cy="31.9" r="4.5"/><circle cx="42.5" cy="31.9" r="4.6"/><circle cx="57.5" cy="31.9" r="4.7"/><circle cx="72.5" cy="31.9" r="4.7"/><circle cx="87.5" cy="31.9" r="4.7"/><circle cx="102.5" cy="31.9" r="4.6"/><circle cx="117.5" cy="31.9" r="4.4"/><circle cx="132.5" cy="31.9" r="4.3"/><circle cx="147.5" cy="31.9" r="4.1"/><circle cx="162.5" cy="31.9" r="3.9"/><circle cx="177.5" cy="31.9" r="3.7"/><circle cx="192.5" cy="31.9" r="3.5"/><circle cx="207.5" cy="31.9" r="3.2"/><circle cx="222.5" cy="31.9" r="3.0"/><circle cx="237.5" cy="31.9" r="2.7"/><circle cx="252.5" cy="31.9" r="2.4"/><circle cx="267.5" cy="31.9" r="2.1"/><circle cx="282.5" cy="31.9" r="1.8"/><circle cx="297.5" cy="31.9" r="1.4"/><circle cx="312.5" cy="31.9" r="0.9"/><circle cx="5.0" cy="44.9" r="4.3"/><circle cx="20.0" cy="44.9" r="4.5"/><circle cx="35.0" cy="44.9" r="4.7"/><circle cx="50.0" cy="44.9" r="4.8"/><circle cx="65.0" cy="44.9" r="4.9"/><circle cx="80.0" cy="44.9" r="4.9"/><circle cx="95.0" cy="44.9" r="4.8"/><circle cx="110.0" cy="44.9" r="4.6"/><circle cx="125.0" cy="44.9" r="4.4"/><circle cx="140.0" cy="44.9" r="4.2"/><circle cx="155.0" cy="44.9" r="4.0"/><circle cx="170.0" cy="44.9" r="3.8"/><circle cx="185.0" cy="44.9" r="3.6"/><circle cx="200.0" cy="44.9" r="3.4"/><circle cx="215.0" cy="44.9" r="3.2"/><circle cx="230.0" cy="44.9" r="2.9"/><circle cx="245.0" cy="44.9" r="2.6"/><circle cx="260.0" cy="44.9" r="2.3"/><circle cx="275.0" cy="44.9" r="2.0"/><circle cx="290.0" cy="44.9" r="1.7"/><circle cx="305.0" cy="44.9" r="1.2"/><circle cx="320.0" cy="44.9" r="0.7"/><circle cx="-2.5" cy="58.0" r="4.3"/><circle cx="12.5" cy="58.0" r="4.5"/><circle cx="27.5" cy="58.0" r="4.7"/><circle cx="42.5" cy="58.0" r="4.8"/><circle cx="57.5" cy="58.0" r="5.0"/><circle cx="72.5" cy="58.0" r="5.1"/><circle cx="87.5" cy="58.0" r="4.9"/><circle cx="102.5" cy="58.0" r="4.8"/><circle cx="117.5" cy="58.0" r="4.6"/><circle cx="132.5" cy="58.0" r="4.4"/><circle cx="147.5" cy="58.0" r="4.2"/><circle cx="162.5" cy="58.0" r="4.0"/><circle cx="177.5" cy="58.0" r="3.8"/><circle cx="192.5" cy="58.0" r="3.5"/><circle cx="207.5" cy="58.0" r="3.3"/><circle cx="222.5" cy="58.0" r="3.1"/><circle cx="237.5" cy="58.0" r="2.8"/><circle cx="252.5" cy="58.0" r="2.5"/><circle cx="267.5" cy="58.0" r="2.2"/><circle cx="282.5" cy="58.0" r="1.9"/><circle cx="297.5" cy="58.0" r="1.5"/><circle cx="312.5" cy="58.0" r="1.0"/><circle cx="5.0" cy="71.0" r="4.4"/><circle cx="20.0" cy="71.0" r="4.6"/><circle cx="35.0" cy="71.0" r="4.8"/><circle cx="50.0" cy="71.0" r="5.0"/><circle cx="65.0" cy="71.0" r="5.1"/><circle cx="80.0" cy="71.0" r="5.1"/><circle cx="95.0" cy="71.0" r="4.9"/><circle cx="110.0" cy="71.0" r="4.7"/><circle cx="125.0" cy="71.0" r="4.5"/><circle cx="140.0" cy="71.0" r="4.3"/><circle cx="155.0" cy="71.0" r="4.1"/><circle cx="170.0" cy="71.0" r="3.9"/><circle cx="185.0" cy="71.0" r="3.7"/><circle cx="200.0" cy="71.0" r="3.4"/><circle cx="215.0" cy="71.0" r="3.2"/><circle cx="230.0" cy="71.0" r="2.9"/><circle cx="245.0" cy="71.0" r="2.7"/><circle cx="260.0" cy="71.0" r="2.4"/><circle cx="275.0" cy="71.0" r="2.0"/><circle cx="290.0" cy="71.0" r="1.7"/><circle cx="305.0" cy="71.0" r="1.3"/><circle cx="320.0" cy="71.0" r="0.7"/><circle cx="-2.5" cy="84.1" r="4.3"/><circle cx="12.5" cy="84.1" r="4.5"/><circle cx="27.5" cy="84.1" r="4.6"/><circle cx="42.5" cy="84.1" r="4.8"/><circle cx="57.5" cy="84.1" r="5.0"/><circle cx="72.5" cy="84.1" r="5.0"/><circle cx="87.5" cy="84.1" r="4.9"/><circle cx="102.5" cy="84.1" r="4.8"/><circle cx="117.5" cy="84.1" r="4.6"/><circle cx="132.5" cy="84.1" r="4.4"/><circle cx="147.5" cy="84.1" r="4.2"/><circle cx="162.5" cy="84.1" r="4.0"/><circle cx="177.5" cy="84.1" r="3.8"/><circle cx="192.5" cy="84.1" r="3.5"/><circle cx="207.5" cy="84.1" r="3.3"/><circle cx="222.5" cy="84.1" r="3.0"/><circle cx="237.5" cy="84.1" r="2.8"/><circle cx="252.5" cy="84.1" r="2.5"/><circle cx="267.5" cy="84.1" r="2.2"/><circle cx="282.5" cy="84.1" r="1.9"/><circle cx="297.5" cy="84.1" r="1.5"/><circle cx="312.5" cy="84.1" r="1.0"/><circle cx="5.0" cy="97.1" r="4.3"/><circle cx="20.0" cy="97.1" r="4.5"/><circle cx="35.0" cy="97.1" r="4.6"/><circle cx="50.0" cy="97.1" r="4.8"/><circle cx="65.0" cy="97.1" r="4.9"/><circle cx="80.0" cy="97.1" r="4.8"/><circle cx="95.0" cy="97.1" r="4.7"/><circle cx="110.0" cy="97.1" r="4.6"/><circle cx="125.0" cy="97.1" r="4.4"/><circle cx="140.0" cy="97.1" r="4.2"/><circle cx="155.0" cy="97.1" r="4.0"/><circle cx="170.0" cy="97.1" r="3.8"/><circle cx="185.0" cy="97.1" r="3.6"/><circle cx="200.0" cy="97.1" r="3.4"/><circle cx="215.0" cy="97.1" r="3.1"/><circle cx="230.0" cy="97.1" r="2.9"/><circle cx="245.0" cy="97.1" r="2.6"/><circle cx="260.0" cy="97.1" r="2.3"/><circle cx="275.0" cy="97.1" r="2.0"/><circle cx="290.0" cy="97.1" r="1.6"/><circle cx="305.0" cy="97.1" r="1.2"/><circle cx="320.0" cy="97.1" r="0.7"/><circle cx="-2.5" cy="110.2" r="4.1"/><circle cx="12.5" cy="110.2" r="4.3"/><circle cx="27.5" cy="110.2" r="4.5"/><circle cx="42.5" cy="110.2" r="4.6"/><circle cx="57.5" cy="110.2" r="4.7"/><circle cx="72.5" cy="110.2" r="4.7"/><circle cx="87.5" cy="110.2" r="4.7"/><circle cx="102.5" cy="110.2" r="4.6"/><circle cx="117.5" cy="110.2" r="4.4"/><circle cx="132.5" cy="110.2" r="4.2"/><circle cx="147.5" cy="110.2" r="4.1"/><circle cx="162.5" cy="110.2" r="3.9"/><circle cx="177.5" cy="110.2" r="3.7"/><circle cx="192.5" cy="110.2" r="3.4"/><circle cx="207.5" cy="110.2" r="3.2"/><circle cx="222.5" cy="110.2" r="3.0"/><circle cx="237.5" cy="110.2" r="2.7"/><circle cx="252.5" cy="110.2" r="2.4"/><circle cx="267.5" cy="110.2" r="2.1"/><circle cx="282.5" cy="110.2" r="1.8"/><circle cx="297.5" cy="110.2" r="1.4"/><circle cx="312.5" cy="110.2" r="0.9"/><circle cx="5.0" cy="123.2" r="4.1"/><circle cx="20.0" cy="123.2" r="4.3"/><circle cx="35.0" cy="123.2" r="4.4"/><circle cx="50.0" cy="123.2" r="4.5"/><circle cx="65.0" cy="123.2" r="4.5"/><circle cx="80.0" cy="123.2" r="4.5"/><circle cx="95.0" cy="123.2" r="4.5"/><circle cx="110.0" cy="123.2" r="4.4"/><circle cx="125.0" cy="123.2" r="4.2"/><circle cx="140.0" cy="123.2" r="4.1"/><circle cx="155.0" cy="123.2" r="3.9"/><circle cx="170.0" cy="123.2" r="3.7"/><circle cx="185.0" cy="123.2" r="3.5"/><circle cx="200.0" cy="123.2" r="3.3"/><circle cx="215.0" cy="123.2" r="3.0"/><circle cx="230.0" cy="123.2" r="2.8"/><circle cx="245.0" cy="123.2" r="2.5"/><circle cx="260.0" cy="123.2" r="2.2"/><circle cx="275.0" cy="123.2" r="1.9"/><circle cx="290.0" cy="123.2" r="1.5"/><circle cx="305.0" cy="123.2" r="1.1"/><circle cx="-2.5" cy="136.3" r="3.9"/><circle cx="12.5" cy="136.3" r="4.1"/><circle cx="27.5" cy="136.3" r="4.2"/><circle cx="42.5" cy="136.3" r="4.3"/><circle cx="57.5" cy="136.3" r="4.3"/><circle cx="72.5" cy="136.3" r="4.4"/><circle cx="87.5" cy="136.3" r="4.3"/><circle cx="102.5" cy="136.3" r="4.3"/><circle cx="117.5" cy="136.3" r="4.1"/><circle cx="132.5" cy="136.3" r="4.0"/><circle cx="147.5" cy="136.3" r="3.9"/><circle cx="162.5" cy="136.3" r="3.7"/><circle cx="177.5" cy="136.3" r="3.5"/><circle cx="192.5" cy="136.3" r="3.3"/><circle cx="207.5" cy="136.3" r="3.1"/><circle cx="222.5" cy="136.3" r="2.8"/><circle cx="237.5" cy="136.3" r="2.6"/><circle cx="252.5" cy="136.3" r="2.3"/><circle cx="267.5" cy="136.3" r="2.0"/><circle cx="282.5" cy="136.3" r="1.6"/><circle cx="297.5" cy="136.3" r="1.2"/><circle cx="312.5" cy="136.3" r="0.7"/><circle cx="5.0" cy="149.3" r="3.8"/><circle cx="20.0" cy="149.3" r="4.0"/><circle cx="35.0" cy="149.3" r="4.1"/><circle cx="50.0" cy="149.3" r="4.1"/><circle cx="65.0" cy="149.3" r="4.2"/><circle cx="80.0" cy="149.3" r="4.2"/><circle cx="95.0" cy="149.3" r="4.1"/><circle cx="110.0" cy="149.3" r="4.0"/><circle cx="125.0" cy="149.3" r="3.9"/><circle cx="140.0" cy="149.3" r="3.8"/><circle cx="155.0" cy="149.3" r="3.6"/><circle cx="170.0" cy="149.3" r="3.5"/><circle cx="185.0" cy="149.3" r="3.3"/><circle cx="200.0" cy="149.3" r="3.1"/><circle cx="215.0" cy="149.3" r="2.8"/><circle cx="230.0" cy="149.3" r="2.6"/><circle cx="245.0" cy="149.3" r="2.3"/><circle cx="260.0" cy="149.3" r="2.0"/><circle cx="275.0" cy="149.3" r="1.7"/><circle cx="290.0" cy="149.3" r="1.3"/><circle cx="305.0" cy="149.3" r="0.8"/><circle cx="-2.5" cy="162.4" r="3.6"/><circle cx="12.5" cy="162.4" r="3.8"/><circle cx="27.5" cy="162.4" r="3.9"/><circle cx="42.5" cy="162.4" r="3.9"/><circle cx="57.5" cy="162.4" r="4.0"/><circle cx="72.5" cy="162.4" r="4.0"/><circle cx="87.5" cy="162.4" r="4.0"/><circle cx="102.5" cy="162.4" r="3.9"/><circle cx="117.5" cy="162.4" r="3.8"/><circle cx="132.5" cy="162.4" r="3.7"/><circle cx="147.5" cy="162.4" r="3.6"/><circle cx="162.5" cy="162.4" r="3.4"/><circle cx="177.5" cy="162.4" r="3.2"/><circle cx="192.5" cy="162.4" r="3.0"/><circle cx="207.5" cy="162.4" r="2.8"/><circle cx="222.5" cy="162.4" r="2.6"/><circle cx="237.5" cy="162.4" r="2.3"/><circle cx="252.5" cy="162.4" r="2.1"/><circle cx="267.5" cy="162.4" r="1.7"/><circle cx="282.5" cy="162.4" r="1.4"/><circle cx="297.5" cy="162.4" r="0.9"/><circle cx="5.0" cy="175.4" r="3.5"/><circle cx="20.0" cy="175.4" r="3.6"/><circle cx="35.0" cy="175.4" r="3.7"/><circle cx="50.0" cy="175.4" r="3.8"/><circle cx="65.0" cy="175.4" r="3.8"/><circle cx="80.0" cy="175.4" r="3.8"/><circle cx="95.0" cy="175.4" r="3.8"/><circle cx="110.0" cy="175.4" r="3.7"/><circle cx="125.0" cy="175.4" r="3.6"/><circle cx="140.0" cy="175.4" r="3.5"/><circle cx="155.0" cy="175.4" r="3.3"/><circle cx="170.0" cy="175.4" r="3.2"/><circle cx="185.0" cy="175.4" r="3.0"/><circle cx="200.0" cy="175.4" r="2.8"/><circle cx="215.0" cy="175.4" r="2.6"/><circle cx="230.0" cy="175.4" r="2.3"/><circle cx="245.0" cy="175.4" r="2.1"/><circle cx="260.0" cy="175.4" r="1.8"/><circle cx="275.0" cy="175.4" r="1.4"/><circle cx="290.0" cy="175.4" r="1.0"/><circle cx="-2.5" cy="188.5" r="3.3"/><circle cx="12.5" cy="188.5" r="3.4"/><circle cx="27.5" cy="188.5" r="3.5"/><circle cx="42.5" cy="188.5" r="3.6"/><circle cx="57.5" cy="188.5" r="3.6"/><circle cx="72.5" cy="188.5" r="3.6"/><circle cx="87.5" cy="188.5" r="3.6"/><circle cx="102.5" cy="188.5" r="3.5"/><circle cx="117.5" cy="188.5" r="3.5"/><circle cx="132.5" cy="188.5" r="3.4"/><circle cx="147.5" cy="188.5" r="3.2"/><circle cx="162.5" cy="188.5" r="3.1"/><circle cx="177.5" cy="188.5" r="2.9"/><circle cx="192.5" cy="188.5" r="2.7"/><circle cx="207.5" cy="188.5" r="2.5"/><circle cx="222.5" cy="188.5" r="2.3"/><circle cx="237.5" cy="188.5" r="2.0"/><circle cx="252.5" cy="188.5" r="1.8"/><circle cx="267.5" cy="188.5" r="1.4"/><circle cx="282.5" cy="188.5" r="1.0"/><circle cx="5.0" cy="201.5" r="3.2"/><circle cx="20.0" cy="201.5" r="3.3"/><circle cx="35.0" cy="201.5" r="3.3"/><circle cx="50.0" cy="201.5" r="3.4"/><circle cx="65.0" cy="201.5" r="3.4"/><circle cx="80.0" cy="201.5" r="3.4"/><circle cx="95.0" cy="201.5" r="3.4"/><circle cx="110.0" cy="201.5" r="3.3"/><circle cx="125.0" cy="201.5" r="3.2"/><circle cx="140.0" cy="201.5" r="3.1"/><circle cx="155.0" cy="201.5" r="3.0"/><circle cx="170.0" cy="201.5" r="2.8"/><circle cx="185.0" cy="201.5" r="2.7"/><circle cx="200.0" cy="201.5" r="2.5"/><circle cx="215.0" cy="201.5" r="2.2"/><circle cx="230.0" cy="201.5" r="2.0"/><circle cx="245.0" cy="201.5" r="1.7"/><circle cx="260.0" cy="201.5" r="1.4"/><circle cx="275.0" cy="201.5" r="1.0"/><circle cx="-2.5" cy="214.6" r="2.9"/><circle cx="12.5" cy="214.6" r="3.0"/><circle cx="27.5" cy="214.6" r="3.1"/><circle cx="42.5" cy="214.6" r="3.2"/><circle cx="57.5" cy="214.6" r="3.2"/><circle cx="72.5" cy="214.6" r="3.2"/><circle cx="87.5" cy="214.6" r="3.2"/><circle cx="102.5" cy="214.6" r="3.1"/><circle cx="117.5" cy="214.6" r="3.1"/><circle cx="132.5" cy="214.6" r="3.0"/><circle cx="147.5" cy="214.6" r="2.9"/><circle cx="162.5" cy="214.6" r="2.7"/><circle cx="177.5" cy="214.6" r="2.6"/><circle cx="192.5" cy="214.6" r="2.4"/><circle cx="207.5" cy="214.6" r="2.2"/><circle cx="222.5" cy="214.6" r="1.9"/><circle cx="237.5" cy="214.6" r="1.7"/><circle cx="252.5" cy="214.6" r="1.3"/><circle cx="267.5" cy="214.6" r="0.9"/><circle cx="5.0" cy="227.6" r="2.7"/><circle cx="20.0" cy="227.6" r="2.8"/><circle cx="35.0" cy="227.6" r="2.9"/><circle cx="50.0" cy="227.6" r="3.0"/><circle cx="65.0" cy="227.6" r="3.0"/><circle cx="80.0" cy="227.6" r="3.0"/><circle cx="95.0" cy="227.6" r="2.9"/><circle cx="110.0" cy="227.6" r="2.9"/><circle cx="125.0" cy="227.6" r="2.8"/><circle cx="140.0" cy="227.6" r="2.7"/><circle cx="155.0" cy="227.6" r="2.6"/><circle cx="170.0" cy="227.6" r="2.4"/><circle cx="185.0" cy="227.6" r="2.3"/><circle cx="200.0" cy="227.6" r="2.1"/><circle cx="215.0" cy="227.6" r="1.8"/><circle cx="230.0" cy="227.6" r="1.6"/><circle cx="245.0" cy="227.6" r="1.3"/><circle cx="260.0" cy="227.6" r="0.9"/><circle cx="-2.5" cy="240.7" r="2.5"/><circle cx="12.5" cy="240.7" r="2.6"/><circle cx="27.5" cy="240.7" r="2.6"/><circle cx="42.5" cy="240.7" r="2.7"/><circle cx="57.5" cy="240.7" r="2.7"/><circle cx="72.5" cy="240.7" r="2.7"/><circle cx="87.5" cy="240.7" r="2.7"/><circle cx="102.5" cy="240.7" r="2.7"/><circle cx="117.5" cy="240.7" r="2.6"/><circle cx="132.5" cy="240.7" r="2.5"/><circle cx="147.5" cy="240.7" r="2.4"/><circle cx="162.5" cy="240.7" r="2.3"/><circle cx="177.5" cy="240.7" r="2.1"/><circle cx="192.5" cy="240.7" r="1.9"/><circle cx="207.5" cy="240.7" r="1.7"/><circle cx="222.5" cy="240.7" r="1.5"/><circle cx="237.5" cy="240.7" r="1.1"/><circle cx="252.5" cy="240.7" r="0.7"/><circle cx="5.0" cy="253.7" r="2.3"/><circle cx="20.0" cy="253.7" r="2.4"/><circle cx="35.0" cy="253.7" r="2.4"/><circle cx="50.0" cy="253.7" r="2.5"/><circle cx="65.0" cy="253.7" r="2.5"/><circle cx="80.0" cy="253.7" r="2.5"/><circle cx="95.0" cy="253.7" r="2.5"/><circle cx="110.0" cy="253.7" r="2.4"/><circle cx="125.0" cy="253.7" r="2.3"/><circle cx="140.0" cy="253.7" r="2.2"/><circle cx="155.0" cy="253.7" r="2.1"/><circle cx="170.0" cy="253.7" r="2.0"/><circle cx="185.0" cy="253.7" r="1.8"/><circle cx="200.0" cy="253.7" r="1.6"/><circle cx="215.0" cy="253.7" r="1.3"/><circle cx="230.0" cy="253.7" r="1.0"/><circle cx="245.0" cy="253.7" r="0.6"/><circle cx="-2.5" cy="266.8" r="1.9"/><circle cx="12.5" cy="266.8" r="2.0"/><circle cx="27.5" cy="266.8" r="2.1"/><circle cx="42.5" cy="266.8" r="2.2"/><circle cx="57.5" cy="266.8" r="2.2"/><circle cx="72.5" cy="266.8" r="2.2"/><circle cx="87.5" cy="266.8" r="2.2"/><circle cx="102.5" cy="266.8" r="2.2"/><circle cx="117.5" cy="266.8" r="2.1"/><circle cx="132.5" cy="266.8" r="2.0"/><circle cx="147.5" cy="266.8" r="1.9"/><circle cx="162.5" cy="266.8" r="1.8"/><circle cx="177.5" cy="266.8" r="1.6"/><circle cx="192.5" cy="266.8" r="1.4"/><circle cx="207.5" cy="266.8" r="1.1"/><circle cx="222.5" cy="266.8" r="0.8"/><circle cx="5.0" cy="279.8" r="1.7"/><circle cx="20.0" cy="279.8" r="1.8"/><circle cx="35.0" cy="279.8" r="1.9"/><circle cx="50.0" cy="279.8" r="1.9"/><circle cx="65.0" cy="279.8" r="1.9"/><circle cx="80.0" cy="279.8" r="1.9"/><circle cx="95.0" cy="279.8" r="1.9"/><circle cx="110.0" cy="279.8" r="1.8"/><circle cx="125.0" cy="279.8" r="1.8"/><circle cx="140.0" cy="279.8" r="1.7"/><circle cx="155.0" cy="279.8" r="1.5"/><circle cx="170.0" cy="279.8" r="1.4"/><circle cx="185.0" cy="279.8" r="1.1"/><circle cx="200.0" cy="279.8" r="0.9"/><circle cx="-2.5" cy="292.9" r="1.3"/><circle cx="12.5" cy="292.9" r="1.4"/><circle cx="27.5" cy="292.9" r="1.5"/><circle cx="42.5" cy="292.9" r="1.6"/><circle cx="57.5" cy="292.9" r="1.6"/><circle cx="72.5" cy="292.9" r="1.6"/><circle cx="87.5" cy="292.9" r="1.6"/><circle cx="102.5" cy="292.9" r="1.6"/><circle cx="117.5" cy="292.9" r="1.5"/><circle cx="132.5" cy="292.9" r="1.4"/><circle cx="147.5" cy="292.9" r="1.2"/><circle cx="162.5" cy="292.9" r="1.1"/><circle cx="177.5" cy="292.9" r="0.8"/><circle cx="192.5" cy="292.9" r="0.5"/><circle cx="5.0" cy="305.9" r="1.0"/><circle cx="20.0" cy="305.9" r="1.1"/><circle cx="35.0" cy="305.9" r="1.2"/><circle cx="50.0" cy="305.9" r="1.2"/><circle cx="65.0" cy="305.9" r="1.2"/><circle cx="80.0" cy="305.9" r="1.2"/><circle cx="95.0" cy="305.9" r="1.2"/><circle cx="110.0" cy="305.9" r="1.1"/><circle cx="125.0" cy="305.9" r="1.0"/><circle cx="140.0" cy="305.9" r="0.9"/><circle cx="155.0" cy="305.9" r="0.7"/><circle cx="27.5" cy="319.0" r="0.6"/><circle cx="42.5" cy="319.0" r="0.7"/><circle cx="57.5" cy="319.0" r="0.8"/><circle cx="72.5" cy="319.0" r="0.8"/><circle cx="87.5" cy="319.0" r="0.8"/><circle cx="102.5" cy="319.0" r="0.7"/><circle cx="117.5" cy="319.0" r="0.6"/></g>
<g fill="#2fcfd6" fill-opacity="0.45"><circle cx="429.0" cy="252.2" r="0.6"/><circle cx="443.0" cy="252.2" r="0.7"/><circle cx="457.0" cy="252.2" r="0.8"/><circle cx="471.0" cy="252.2" r="0.8"/><circle cx="485.0" cy="252.2" r="0.8"/><circle cx="499.0" cy="252.2" r="0.7"/><circle cx="513.0" cy="252.2" r="0.6"/><circle cx="394.0" cy="264.4" r="0.7"/><circle cx="408.0" cy="264.4" r="0.9"/><circle cx="422.0" cy="264.4" r="1.0"/><circle cx="436.0" cy="264.4" r="1.1"/><circle cx="450.0" cy="264.4" r="1.2"/><circle cx="464.0" cy="264.4" r="1.2"/><circle cx="478.0" cy="264.4" r="1.2"/><circle cx="492.0" cy="264.4" r="1.2"/><circle cx="506.0" cy="264.4" r="1.1"/><circle cx="520.0" cy="264.4" r="1.0"/><circle cx="359.0" cy="276.5" r="0.6"/><circle cx="373.0" cy="276.5" r="0.8"/><circle cx="387.0" cy="276.5" r="1.0"/><circle cx="401.0" cy="276.5" r="1.2"/><circle cx="415.0" cy="276.5" r="1.3"/><circle cx="429.0" cy="276.5" r="1.4"/><circle cx="443.0" cy="276.5" r="1.5"/><circle cx="457.0" cy="276.5" r="1.5"/><circle cx="471.0" cy="276.5" r="1.5"/><circle cx="485.0" cy="276.5" r="1.5"/><circle cx="499.0" cy="276.5" r="1.5"/><circle cx="513.0" cy="276.5" r="1.4"/><circle cx="338.0" cy="288.7" r="0.5"/><circle cx="352.0" cy="288.7" r="0.8"/><circle cx="366.0" cy="288.7" r="1.1"/><circle cx="380.0" cy="288.7" r="1.3"/><circle cx="394.0" cy="288.7" r="1.4"/><circle cx="408.0" cy="288.7" r="1.6"/><circle cx="422.0" cy="288.7" r="1.7"/><circle cx="436.0" cy="288.7" r="1.7"/><circle cx="450.0" cy="288.7" r="1.8"/><circle cx="464.0" cy="288.7" r="1.8"/><circle cx="478.0" cy="288.7" r="1.8"/><circle cx="492.0" cy="288.7" r="1.8"/><circle cx="506.0" cy="288.7" r="1.7"/><circle cx="520.0" cy="288.7" r="1.7"/><circle cx="331.0" cy="300.9" r="0.7"/><circle cx="345.0" cy="300.9" r="1.1"/><circle cx="359.0" cy="300.9" r="1.3"/><circle cx="373.0" cy="300.9" r="1.5"/><circle cx="387.0" cy="300.9" r="1.6"/><circle cx="401.0" cy="300.9" r="1.8"/><circle cx="415.0" cy="300.9" r="1.9"/><circle cx="429.0" cy="300.9" r="2.0"/><circle cx="443.0" cy="300.9" r="2.0"/><circle cx="457.0" cy="300.9" r="2.1"/><circle cx="471.0" cy="300.9" r="2.1"/><circle cx="485.0" cy="300.9" r="2.1"/><circle cx="499.0" cy="300.9" r="2.0"/><circle cx="513.0" cy="300.9" r="2.0"/><circle cx="310.0" cy="313.1" r="0.5"/><circle cx="324.0" cy="313.1" r="0.9"/><circle cx="338.0" cy="313.1" r="1.2"/><circle cx="352.0" cy="313.1" r="1.5"/><circle cx="366.0" cy="313.1" r="1.7"/><circle cx="380.0" cy="313.1" r="1.8"/><circle cx="394.0" cy="313.1" r="2.0"/><circle cx="408.0" cy="313.1" r="2.1"/><circle cx="422.0" cy="313.1" r="2.2"/><circle cx="436.0" cy="313.1" r="2.2"/><circle cx="450.0" cy="313.1" r="2.3"/><circle cx="464.0" cy="313.1" r="2.3"/><circle cx="478.0" cy="313.1" r="2.3"/><circle cx="492.0" cy="313.1" r="2.3"/><circle cx="506.0" cy="313.1" r="2.2"/><circle cx="520.0" cy="313.1" r="2.2"/><circle cx="303.0" cy="325.3" r="0.7"/><circle cx="317.0" cy="325.3" r="1.0"/><circle cx="331.0" cy="325.3" r="1.3"/><circle cx="345.0" cy="325.3" r="1.6"/><circle cx="359.0" cy="325.3" r="1.8"/><circle cx="373.0" cy="325.3" r="2.0"/><circle cx="387.0" cy="325.3" r="2.1"/><circle cx="401.0" cy="325.3" r="2.2"/><circle cx="415.0" cy="325.3" r="2.4"/><circle cx="429.0" cy="325.3" r="2.4"/><circle cx="443.0" cy="325.3" r="2.5"/><circle cx="457.0" cy="325.3" r="2.5"/><circle cx="471.0" cy="325.3" r="2.5"/><circle cx="485.0" cy="325.3" r="2.5"/><circle cx="499.0" cy="325.3" r="2.5"/><circle cx="513.0" cy="325.3" r="2.4"/><circle cx="296.0" cy="337.4" r="0.8"/><circle cx="310.0" cy="337.4" r="1.1"/><circle cx="324.0" cy="337.4" r="1.4"/><circle cx="338.0" cy="337.4" r="1.7"/><circle cx="352.0" cy="337.4" r="1.9"/><circle cx="366.0" cy="337.4" r="2.1"/><circle cx="380.0" cy="337.4" r="2.2"/><circle cx="394.0" cy="337.4" r="2.4"/><circle cx="408.0" cy="337.4" r="2.5"/><circle cx="422.0" cy="337.4" r="2.6"/><circle cx="436.0" cy="337.4" r="2.7"/><circle cx="450.0" cy="337.4" r="2.7"/><circle cx="464.0" cy="337.4" r="2.7"/><circle cx="478.0" cy="337.4" r="2.7"/><circle cx="492.0" cy="337.4" r="2.7"/><circle cx="506.0" cy="337.4" r="2.7"/><circle cx="520.0" cy="337.4" r="2.6"/><circle cx="289.0" cy="349.6" r="0.8"/><circle cx="303.0" cy="349.6" r="1.2"/><circle cx="317.0" cy="349.6" r="1.5"/><circle cx="331.0" cy="349.6" r="1.8"/><circle cx="345.0" cy="349.6" r="2.0"/><circle cx="359.0" cy="349.6" r="2.2"/><circle cx="373.0" cy="349.6" r="2.4"/><circle cx="387.0" cy="349.6" r="2.5"/><circle cx="401.0" cy="349.6" r="2.6"/><circle cx="415.0" cy="349.6" r="2.8"/><circle cx="429.0" cy="349.6" r="2.8"/><circle cx="443.0" cy="349.6" r="2.9"/><circle cx="457.0" cy="349.6" r="2.9"/><circle cx="471.0" cy="349.6" r="2.9"/><circle cx="485.0" cy="349.6" r="2.9"/><circle cx="499.0" cy="349.6" r="2.9"/><circle cx="513.0" cy="349.6" r="2.8"/><circle cx="282.0" cy="361.8" r="0.8"/><circle cx="296.0" cy="361.8" r="1.2"/><circle cx="310.0" cy="361.8" r="1.5"/><circle cx="324.0" cy="361.8" r="1.8"/><circle cx="338.0" cy="361.8" r="2.0"/><circle cx="352.0" cy="361.8" r="2.3"/><circle cx="366.0" cy="361.8" r="2.4"/><circle cx="380.0" cy="361.8" r="2.6"/><circle cx="394.0" cy="361.8" r="2.8"/><circle cx="408.0" cy="361.8" r="2.9"/><circle cx="422.0" cy="361.8" r="3.0"/><circle cx="436.0" cy="361.8" r="3.1"/><circle cx="450.0" cy="361.8" r="3.1"/><circle cx="464.0" cy="361.8" r="3.1"/><circle cx="478.0" cy="361.8" r="3.1"/><circle cx="492.0" cy="361.8" r="3.1"/><circle cx="506.0" cy="361.8" r="3.1"/><circle cx="520.0" cy="361.8" r="3.0"/><circle cx="275.0" cy="374.0" r="0.8"/><circle cx="289.0" cy="374.0" r="1.2"/><circle cx="303.0" cy="374.0" r="1.5"/><circle cx="317.0" cy="374.0" r="1.8"/><circle cx="331.0" cy="374.0" r="2.1"/><circle cx="345.0" cy="374.0" r="2.3"/><circle cx="359.0" cy="374.0" r="2.5"/><circle cx="373.0" cy="374.0" r="2.7"/><circle cx="387.0" cy="374.0" r="2.8"/><circle cx="401.0" cy="374.0" r="3.0"/><circle cx="415.0" cy="374.0" r="3.1"/><circle cx="429.0" cy="374.0" r="3.2"/><circle cx="443.0" cy="374.0" r="3.3"/><circle cx="457.0" cy="374.0" r="3.3"/><circle cx="471.0" cy="374.0" r="3.3"/><circle cx="485.0" cy="374.0" r="3.3"/><circle cx="499.0" cy="374.0" r="3.3"/><circle cx="513.0" cy="374.0" r="3.2"/><circle cx="268.0" cy="386.2" r="0.8"/><circle cx="282.0" cy="386.2" r="1.2"/><circle cx="296.0" cy="386.2" r="1.5"/><circle cx="310.0" cy="386.2" r="1.8"/><circle cx="324.0" cy="386.2" r="2.1"/><circle cx="338.0" cy="386.2" r="2.3"/><circle cx="352.0" cy="386.2" r="2.5"/><circle cx="366.0" cy="386.2" r="2.7"/><circle cx="380.0" cy="386.2" r="2.9"/><circle cx="394.0" cy="386.2" r="3.1"/><circle cx="408.0" cy="386.2" r="3.2"/><circle cx="422.0" cy="386.2" r="3.3"/><circle cx="436.0" cy="386.2" r="3.4"/><circle cx="450.0" cy="386.2" r="3.5"/><circle cx="464.0" cy="386.2" r="3.5"/><circle cx="478.0" cy="386.2" r="3.5"/><circle cx="492.0" cy="386.2" r="3.5"/><circle cx="506.0" cy="386.2" r="3.4"/><circle cx="520.0" cy="386.2" r="3.3"/><circle cx="261.0" cy="398.3" r="0.7"/><circle cx="275.0" cy="398.3" r="1.1"/><circle cx="289.0" cy="398.3" r="1.5"/><circle cx="303.0" cy="398.3" r="1.8"/><circle cx="317.0" cy="398.3" r="2.1"/><circle cx="331.0" cy="398.3" r="2.3"/><circle cx="345.0" cy="398.3" r="2.5"/><circle cx="359.0" cy="398.3" r="2.8"/><circle cx="373.0" cy="398.3" r="2.9"/><circle cx="387.0" cy="398.3" r="3.1"/><circle cx="401.0" cy="398.3" r="3.3"/><circle cx="415.0" cy="398.3" r="3.4"/><circle cx="429.0" cy="398.3" r="3.5"/><circle cx="443.0" cy="398.3" r="3.6"/><circle cx="457.0" cy="398.3" r="3.7"/><circle cx="471.0" cy="398.3" r="3.7"/><circle cx="485.0" cy="398.3" r="3.7"/><circle cx="499.0" cy="398.3" r="3.6"/><circle cx="513.0" cy="398.3" r="3.5"/><circle cx="254.0" cy="410.5" r="0.5"/><circle cx="268.0" cy="410.5" r="1.0"/><circle cx="282.0" cy="410.5" r="1.4"/><circle cx="296.0" cy="410.5" r="1.8"/><circle cx="310.0" cy="410.5" r="2.0"/><circle cx="324.0" cy="410.5" r="2.3"/><circle cx="338.0" cy="410.5" r="2.5"/><circle cx="352.0" cy="410.5" r="2.8"/><circle cx="366.0" cy="410.5" r="3.0"/><circle cx="380.0" cy="410.5" r="3.1"/><circle cx="394.0" cy="410.5" r="3.3"/><circle cx="408.0" cy="410.5" r="3.5"/><circle cx="422.0" cy="410.5" r="3.6"/><circle cx="436.0" cy="410.5" r="3.7"/><circle cx="450.0" cy="410.5" r="3.8"/><circle cx="464.0" cy="410.5" r="3.8"/><circle cx="478.0" cy="410.5" r="3.8"/><circle cx="492.0" cy="410.5" r="3.8"/><circle cx="506.0" cy="410.5" r="3.7"/><circle cx="520.0" cy="410.5" r="3.6"/><circle cx="261.0" cy="422.7" r="0.9"/><circle cx="275.0" cy="422.7" r="1.3"/><circle cx="289.0" cy="422.7" r="1.7"/><circle cx="303.0" cy="422.7" r="2.0"/><circle cx="317.0" cy="422.7" r="2.3"/><circle cx="331.0" cy="422.7" r="2.5"/><circle cx="345.0" cy="422.7" r="2.7"/><circle cx="359.0" cy="422.7" r="2.9"/><circle cx="373.0" cy="422.7" r="3.1"/><circle cx="387.0" cy="422.7" r="3.3"/><circle cx="401.0" cy="422.7" r="3.5"/><circle cx="415.0" cy="422.7" r="3.7"/><circle cx="429.0" cy="422.7" r="3.8"/><circle cx="443.0" cy="422.7" r="3.9"/><circle cx="457.0" cy="422.7" r="4.0"/><circle cx="471.0" cy="422.7" r="4.0"/><circle cx="485.0" cy="422.7" r="4.0"/><circle cx="499.0" cy="422.7" r="3.9"/><circle cx="513.0" cy="422.7" r="3.8"/><circle cx="254.0" cy="434.9" r="0.7"/><circle cx="268.0" cy="434.9" r="1.2"/><circle cx="282.0" cy="434.9" r="1.6"/><circle cx="296.0" cy="434.9" r="1.9"/><circle cx="310.0" cy="434.9" r="2.2"/><circle cx="324.0" cy="434.9" r="2.4"/><circle cx="338.0" cy="434.9" r="2.7"/><circle cx="352.0" cy="434.9" r="2.9"/><circle cx="366.0" cy="434.9" r="3.1"/><circle cx="380.0" cy="434.9" r="3.3"/><circle cx="394.0" cy="434.9" r="3.5"/><circle cx="408.0" cy="434.9" r="3.7"/><circle cx="422.0" cy="434.9" r="3.8"/><circle cx="436.0" cy="434.9" r="4.0"/><circle cx="450.0" cy="434.9" r="4.1"/><circle cx="464.0" cy="434.9" r="4.2"/><circle cx="478.0" cy="434.9" r="4.2"/><circle cx="492.0" cy="434.9" r="4.1"/><circle cx="506.0" cy="434.9" r="4.0"/><circle cx="520.0" cy="434.9" r="3.8"/><circle cx="247.0" cy="447.1" r="0.5"/><circle cx="261.0" cy="447.1" r="1.1"/><circle cx="275.0" cy="447.1" r="1.5"/><circle cx="289.0" cy="447.1" r="1.8"/><circle cx="303.0" cy="447.1" r="2.1"/><circle cx="317.0" cy="447.1" r="2.4"/><circle cx="331.0" cy="447.1" r="2.6"/><circle cx="345.0" cy="447.1" r="2.8"/><circle cx="359.0" cy="447.1" r="3.1"/><circle cx="373.0" cy="447.1" r="3.3"/><circle cx="387.0" cy="447.1" r="3.5"/><circle cx="401.0" cy="447.1" r="3.7"/><circle cx="415.0" cy="447.1" r="3.8"/><circle cx="429.0" cy="447.1" r="4.0"/><circle cx="443.0" cy="447.1" r="4.2"/><circle cx="457.0" cy="447.1" r="4.3"/><circle cx="471.0" cy="447.1" r="4.3"/><circle cx="485.0" cy="447.1" r="4.3"/><circle cx="499.0" cy="447.1" r="4.1"/><circle cx="513.0" cy="447.1" r="4.0"/><circle cx="254.0" cy="459.2" r="0.8"/><circle cx="268.0" cy="459.2" r="1.3"/><circle cx="282.0" cy="459.2" r="1.7"/><circle cx="296.0" cy="459.2" r="2.0"/><circle cx="310.0" cy="459.2" r="2.2"/><circle cx="324.0" cy="459.2" r="2.5"/><circle cx="338.0" cy="459.2" r="2.7"/><circle cx="352.0" cy="459.2" r="3.0"/><circle cx="366.0" cy="459.2" r="3.2"/><circle cx="380.0" cy="459.2" r="3.4"/><circle cx="394.0" cy="459.2" r="3.6"/><circle cx="408.0" cy="459.2" r="3.8"/><circle cx="422.0" cy="459.2" r="4.0"/><circle cx="436.0" cy="459.2" r="4.2"/><circle cx="450.0" cy="459.2" r="4.3"/><circle cx="464.0" cy="459.2" r="4.5"/><circle cx="478.0" cy="459.2" r="4.4"/><circle cx="492.0" cy="459.2" r="4.3"/><circle cx="506.0" cy="459.2" r="4.1"/><circle cx="520.0" cy="459.2" r="4.0"/><circle cx="247.0" cy="471.4" r="0.6"/><circle cx="261.0" cy="471.4" r="1.1"/><circle cx="275.0" cy="471.4" r="1.5"/><circle cx="289.0" cy="471.4" r="1.8"/><circle cx="303.0" cy="471.4" r="2.1"/><circle cx="317.0" cy="471.4" r="2.4"/><circle cx="331.0" cy="471.4" r="2.6"/><circle cx="345.0" cy="471.4" r="2.9"/><circle cx="359.0" cy="471.4" r="3.1"/><circle cx="373.0" cy="471.4" r="3.3"/><circle cx="387.0" cy="471.4" r="3.5"/><circle cx="401.0" cy="471.4" r="3.7"/><circle cx="415.0" cy="471.4" r="3.9"/><circle cx="429.0" cy="471.4" r="4.1"/><circle cx="443.0" cy="471.4" r="4.3"/><circle cx="457.0" cy="471.4" r="4.4"/><circle cx="471.0" cy="471.4" r="4.6"/><circle cx="485.0" cy="471.4" r="4.4"/><circle cx="499.0" cy="471.4" r="4.2"/><circle cx="513.0" cy="471.4" r="4.1"/><circle cx="254.0" cy="483.6" r="0.8"/><circle cx="268.0" cy="483.6" r="1.3"/><circle cx="282.0" cy="483.6" r="1.6"/><circle cx="296.0" cy="483.6" r="2.0"/><circle cx="310.0" cy="483.6" r="2.2"/><circle cx="324.0" cy="483.6" r="2.5"/><circle cx="338.0" cy="483.6" r="2.7"/><circle cx="352.0" cy="483.6" r="3.0"/><circle cx="366.0" cy="483.6" r="3.2"/><circle cx="380.0" cy="483.6" r="3.4"/><circle cx="394.0" cy="483.6" r="3.6"/><circle cx="408.0" cy="483.6" r="3.8"/><circle cx="422.0" cy="483.6" r="4.0"/><circle cx="436.0" cy="483.6" r="4.1"/><circle cx="450.0" cy="483.6" r="4.3"/><circle cx="464.0" cy="483.6" r="4.4"/><circle cx="478.0" cy="483.6" r="4.4"/><circle cx="492.0" cy="483.6" r="4.3"/><circle cx="506.0" cy="483.6" r="4.1"/><circle cx="520.0" cy="483.6" r="3.9"/><circle cx="261.0" cy="495.8" r="1.0"/><circle cx="275.0" cy="495.8" r="1.4"/><circle cx="289.0" cy="495.8" r="1.8"/><circle cx="303.0" cy="495.8" r="2.1"/><circle cx="317.0" cy="495.8" r="2.3"/><circle cx="331.0" cy="495.8" r="2.6"/><circle cx="345.0" cy="495.8" r="2.8"/><circle cx="359.0" cy="495.8" r="3.1"/><circle cx="373.0" cy="495.8" r="3.3"/><circle cx="387.0" cy="495.8" r="3.5"/><circle cx="401.0" cy="495.8" r="3.6"/><circle cx="415.0" cy="495.8" r="3.8"/><circle cx="429.0" cy="495.8" r="4.0"/><circle cx="443.0" cy="495.8" r="4.1"/><circle cx="457.0" cy="495.8" r="4.2"/><circle cx="471.0" cy="495.8" r="4.3"/><circle cx="485.0" cy="495.8" r="4.2"/><circle cx="499.0" cy="495.8" r="4.1"/><circle cx="513.0" cy="495.8" r="4.0"/><circle cx="254.0" cy="508.0" r="0.7"/><circle cx="268.0" cy="508.0" r="1.2"/><circle cx="282.0" cy="508.0" r="1.6"/><circle cx="296.0" cy="508.0" r="1.9"/><circle cx="310.0" cy="508.0" r="2.2"/><circle cx="324.0" cy="508.0" r="2.4"/><circle cx="338.0" cy="508.0" r="2.7"/><circle cx="352.0" cy="508.0" r="2.9"/><circle cx="366.0" cy="508.0" r="3.1"/><circle cx="380.0" cy="508.0" r="3.3"/><circle cx="394.0" cy="508.0" r="3.5"/><circle cx="408.0" cy="508.0" r="3.7"/><circle cx="422.0" cy="508.0" r="3.8"/><circle cx="436.0" cy="508.0" r="4.0"/><circle cx="450.0" cy="508.0" r="4.1"/><circle cx="464.0" cy="508.0" r="4.1"/><circle cx="478.0" cy="508.0" r="4.1"/><circle cx="492.0" cy="508.0" r="4.1"/><circle cx="506.0" cy="508.0" r="3.9"/><circle cx="520.0" cy="508.0" r="3.8"/><circle cx="261.0" cy="520.1" r="0.9"/><circle cx="275.0" cy="520.1" r="1.3"/><circle cx="289.0" cy="520.1" r="1.7"/><circle cx="303.0" cy="520.1" r="2.0"/><circle cx="317.0" cy="520.1" r="2.2"/><circle cx="331.0" cy="520.1" r="2.5"/><circle cx="345.0" cy="520.1" r="2.7"/><circle cx="359.0" cy="520.1" r="2.9"/><circle cx="373.0" cy="520.1" r="3.1"/><circle cx="387.0" cy="520.1" r="3.3"/><circle cx="401.0" cy="520.1" r="3.5"/><circle cx="415.0" cy="520.1" r="3.6"/><circle cx="429.0" cy="520.1" r="3.8"/><circle cx="443.0" cy="520.1" r="3.9"/><circle cx="457.0" cy="520.1" r="3.9"/><circle cx="471.0" cy="520.1" r="4.0"/><circle cx="485.0" cy="520.1" r="3.9"/><circle cx="499.0" cy="520.1" r="3.9"/><circle cx="513.0" cy="520.1" r="3.8"/></g>
<g fill="#2fcfd6" fill-opacity="0.55"><path d="M314.0 330.0 L313.2 337.5 L308.7 344.6 L301.3 350.8 L292.8 356.1 L284.9 360.8 L279.0 365.4 L275.4 370.5 L273.5 376.1 L272.0 382.0 L269.8 387.6 L266.3 392.5 L261.5 396.5 L256.2 399.8 L251.4 403.2 L247.3 407.3 L244.1 412.3 L240.9 417.6 L237.0 422.3 L231.9 425.3 L225.4 426.0 L218.2 424.5 L211.0 422.0 L204.6 420.2 L199.4 420.4 L195.1 423.7 L191.2 429.6 L187.0 437.0 L182.0 444.4 L176.3 450.2 L170.0 453.8 L163.4 455.6 L156.7 456.4 L149.8 457.3 L142.7 458.5 L135.2 459.9 L127.6 460.4 L120.5 458.9 L114.5 454.7 L109.8 448.1 L106.4 440.1 L103.6 432.2 L100.4 425.7 L96.0 421.4 L90.0 418.8 L82.9 417.1 L75.6 415.0 L69.6 411.3 L65.5 405.9 L63.8 399.0 L63.7 391.4 L64.3 383.8 L64.6 376.9 L64.2 370.6 L63.5 364.6 L63.3 358.6 L64.5 352.4 L67.4 346.3 L71.5 340.4 L75.6 334.9 L78.0 330.0 L77.5 325.2 L74.0 319.9 L68.2 313.9 L61.9 307.0 L56.9 299.7 L54.6 292.5 L55.1 285.9 L57.9 280.1 L61.8 274.8 L65.4 269.6 L68.3 264.0 L70.6 257.7 L72.8 251.3 L76.0 245.3 L80.5 240.5 L86.2 236.9 L92.4 234.2 L98.3 231.4 L103.3 227.4 L107.4 221.6 L111.0 214.2 L115.0 206.4 L120.0 199.8 L126.5 196.0 L134.0 195.7 L142.1 198.8 L150.0 204.0 L157.4 209.7 L163.9 214.5 L170.0 217.8 L175.8 219.9 L181.4 221.7 L186.8 224.2 L191.7 227.7 L196.3 231.9 L200.6 235.9 L205.1 238.5 L210.5 239.1 L217.0 237.8 L224.4 235.7 L232.2 234.3 L239.2 234.8 L244.5 238.0 L247.9 243.5 L249.7 250.3 L251.0 257.1 L253.0 262.8 L256.5 267.2 L261.7 270.4 L268.1 273.4 L274.6 276.7 L280.2 280.9 L284.6 286.0 L287.9 291.7 L291.2 297.5 L295.3 303.4 L300.5 309.3 L306.2 315.7 L311.2 322.6 L314.0 330.0Z"/><circle cx="318.7" cy="334.8" r="6.7"/><circle cx="308.3" cy="418.7" r="12.2"/><circle cx="186.4" cy="511.4" r="12.0"/><circle cx="117.8" cy="468.6" r="7.0"/><circle cx="18.6" cy="395.0" r="7.8"/><circle cx="-21.1" cy="303.2" r="12.7"/><circle cx="61.4" cy="208.6" r="12.9"/><circle cx="223.2" cy="159.8" r="11.4"/><circle cx="295.3" cy="184.5" r="7.1"/></g>
<circle cx="238" cy="292" r="178" fill="#ffffff" fill-opacity=".55"/>
<circle cx="238" cy="292" r="166" fill="none" stroke="#3fe0b8" stroke-width="24"/>
<circle cx="238" cy="292" r="140" fill="#ffffff"/>
<circle cx="238" cy="292" r="125" fill="none" stroke="#8f93ec" stroke-width="26"/>
<circle cx="238" cy="292" r="98" fill="#ffffff"/>
<circle cx="238" cy="292" r="87" fill="url(#core)"/>
<path d="M196 296 L227 326 L283 264" fill="none" stroke="#ffffff" stroke-width="26" stroke-linecap="round" stroke-linejoin="round"/>
<path fill="#1a46b0" d="M515.3 -10.9 L514.4 -9.6 L513.6 -8.4 L512.7 -7.1 L511.8 -5.8 L511.0 -4.6 L510.1 -3.3 L509.3 -2.0 L508.5 -0.8 L507.6 0.5 L506.8 1.8 L506.0 3.1 L505.1 4.3 L504.3 5.6 L503.5 6.9 L502.7 8.2 L501.9 9.5 L501.1 10.8 L500.3 12.1 L499.5 13.4 L498.7 14.7 L497.9 16.0 L497.1 17.3 L496.3 18.6 L495.6 19.9 L494.8 21.2 L494.0 22.5 L493.2 23.9 L492.5 25.2 L491.7 26.5 L491.0 27.8 L490.2 29.2 L489.5 30.5 L488.7 31.8 L488.0 33.1 L487.3 34.5 L486.5 35.8 L485.8 37.2 L485.1 38.5 L484.4 39.8 L483.7 41.2 L483.0 42.5 L482.3 43.9 L481.6 45.2 L480.9 46.6 L480.2 48.0 L479.5 49.3 L478.8 50.7 L478.2 52.1 L477.5 53.4 L476.8 54.8 L476.2 56.2 L475.5 57.5 L474.9 58.9 L474.2 60.3 L473.6 61.7 L472.9 63.1 L472.3 64.5 L471.7 65.9 L471.1 67.3 L470.4 68.7 L469.8 70.1 L469.2 71.5 L468.6 72.9 L468.0 74.3 L467.5 75.7 L466.9 77.1 L466.3 78.5 L465.8 79.9 L465.2 81.4 L464.6 82.8 L464.1 84.2 L463.6 85.7 L463.0 87.1 L462.5 88.6 L462.0 90.0 L461.5 91.5 L461.0 92.9 L460.5 94.4 L460.1 95.8 L459.6 97.3 L459.1 98.8 L458.7 100.2 L458.2 101.7 L457.8 103.2 L457.4 104.7 L457.0 106.2 L456.6 107.7 L456.2 109.2 L455.9 110.7 L455.5 112.2 L455.2 113.7 L454.8 115.2 L454.5 116.7 L454.2 118.3 L454.0 119.8 L453.7 121.3 L453.4 122.9 L453.2 124.4 L453.0 125.9 L452.8 127.5 L452.6 129.0 L452.5 130.6 L452.3 132.2 L452.2 133.7 L452.1 135.3 L452.1 136.9 L452.0 138.4 L452.0 140.0 L452.0 141.6 L452.0 143.2 L452.1 144.7 L452.1 146.3 L452.3 147.9 L452.4 149.5 L452.6 151.1 L452.8 152.6 L453.0 154.2 L453.2 155.8 L453.5 157.4 L453.9 158.9 L454.2 160.5 L454.6 162.0 L455.1 163.6 L455.6 165.1 L456.1 166.6 L456.6 168.1 L457.2 169.6 L457.9 171.1 L458.5 172.6 L459.3 174.1 L460.0 175.5 L460.9 176.9 L461.7 178.3 L462.6 179.6 L463.6 181.0 L464.6 182.3 L465.6 183.5 L466.7 184.8 L467.8 185.9 L469.0 187.1 L470.2 188.2 L471.5 189.2 L472.8 190.2 L474.2 191.2 L475.6 192.1 L477.0 192.9 L478.5 193.7 L480.0 194.4 L481.6 195.0 L483.2 195.5 L484.8 196.0 L486.4 196.4 L488.1 196.7 L489.7 196.9 L491.4 197.0 L493.1 197.0 L494.8 196.9 L496.5 196.8 L498.2 196.5 L499.8 196.1 L501.4 195.6 L503.0 195.0 L504.6 194.3 L506.1 193.5 L507.5 192.5 L508.9 191.5 L510.2 190.4 L511.4 189.2 L512.6 187.8 L513.6 186.4 L514.5 184.9 L515.2 183.4 L515.9 181.8 L516.4 180.1 L516.7 178.4 L516.9 176.7 L516.9 174.9 L516.8 173.2 L516.5 171.4 L516.0 169.8 L515.4 168.1 L514.5 166.6 L513.6 165.1 L512.4 163.7 L511.2 162.5 L509.8 161.4 L508.2 160.5 L506.6 159.8 L504.9 159.3 L503.2 158.9 L501.4 158.8 L499.6 159.0 L497.9 159.3 L496.2 159.9 L494.6 160.7 L493.2 161.7 L491.9 163.0 L490.7 164.4 L489.8 165.9 L489.2 167.6 L492.7 169.0 L493.2 167.9 L493.8 166.8 L494.6 165.9 L495.5 165.1 L496.5 164.4 L497.6 163.9 L498.7 163.5 L499.9 163.3 L501.1 163.2 L502.4 163.3 L503.6 163.6 L504.7 163.9 L505.8 164.5 L506.9 165.1 L507.8 165.9 L508.7 166.8 L509.5 167.8 L510.1 168.8 L510.7 169.9 L511.1 171.1 L511.4 172.3 L511.6 173.5 L511.6 174.8 L511.6 176.0 L511.4 177.3 L511.1 178.5 L510.7 179.7 L510.2 180.8 L509.7 182.0 L509.0 183.0 L508.2 184.0 L507.3 185.0 L506.4 185.9 L505.4 186.7 L504.4 187.4 L503.3 188.1 L502.1 188.6 L500.9 189.1 L499.7 189.5 L498.4 189.9 L497.2 190.1 L495.9 190.3 L494.6 190.4 L493.3 190.4 L492.0 190.4 L490.7 190.2 L489.4 190.0 L488.1 189.7 L486.8 189.4 L485.5 189.0 L484.3 188.5 L483.1 187.9 L481.9 187.3 L480.7 186.7 L479.6 186.0 L478.5 185.2 L477.4 184.4 L476.4 183.5 L475.4 182.6 L474.4 181.7 L473.5 180.7 L472.6 179.7 L471.7 178.7 L470.9 177.6 L470.1 176.5 L469.4 175.3 L468.7 174.1 L468.0 172.9 L467.3 171.7 L466.7 170.5 L466.2 169.2 L465.6 168.0 L465.2 166.7 L464.7 165.4 L464.3 164.0 L463.9 162.7 L463.5 161.4 L463.2 160.0 L462.9 158.6 L462.6 157.3 L462.4 155.9 L462.2 154.5 L462.0 153.1 L461.9 151.7 L461.8 150.3 L461.7 148.9 L461.6 147.5 L461.6 146.0 L461.6 144.6 L461.6 143.2 L461.6 141.8 L461.7 140.4 L461.8 138.9 L461.9 137.5 L462.0 136.1 L462.1 134.7 L462.3 133.2 L462.5 131.8 L462.7 130.4 L462.9 129.0 L463.1 127.6 L463.4 126.1 L463.7 124.7 L464.0 123.3 L464.3 121.9 L464.6 120.5 L464.9 119.1 L465.3 117.7 L465.6 116.3 L466.0 114.9 L466.4 113.5 L466.8 112.1 L467.2 110.7 L467.7 109.3 L468.1 107.9 L468.5 106.5 L469.0 105.1 L469.5 103.8 L470.0 102.4 L470.5 101.0 L471.0 99.6 L471.5 98.3 L472.0 96.9 L472.5 95.5 L473.1 94.2 L473.6 92.8 L474.2 91.4 L474.7 90.1 L475.3 88.7 L475.9 87.4 L476.5 86.0 L477.0 84.7 L477.6 83.3 L478.2 82.0 L478.9 80.7 L479.5 79.3 L480.1 78.0 L480.7 76.7 L481.4 75.3 L482.0 74.0 L482.7 72.7 L483.3 71.4 L484.0 70.1 L484.6 68.7 L485.3 67.4 L486.0 66.1 L486.7 64.8 L487.4 63.5 L488.1 62.2 L488.7 60.9 L489.4 59.6 L490.2 58.3 L490.9 57.0 L491.6 55.7 L492.3 54.4 L493.0 53.1 L493.7 51.8 L494.5 50.6 L495.2 49.3 L496.0 48.0 L496.7 46.7 L497.5 45.5 L498.2 44.2 L499.0 42.9 L499.7 41.6 L500.5 40.4 L501.3 39.1 L502.0 37.9 L502.8 36.6 L503.6 35.3 L504.4 34.1 L505.2 32.8 L505.9 31.6 L506.7 30.4 L507.5 29.1 L508.3 27.9 L509.2 26.6 L510.0 25.4 L510.8 24.2 L511.6 22.9 L512.4 21.7 L513.2 20.5 L514.1 19.3 L514.9 18.0 L515.7 16.8 L516.6 15.6 L517.4 14.4 L518.3 13.2 L519.1 12.0 L520.0 10.8 L520.8 9.6 L521.7 8.4 L522.6 7.2 L523.4 6.0 L524.3 4.8 L525.2 3.6 L526.1 2.4 L526.9 1.2 L527.8 0.1 L528.7 -1.1Z"/><circle fill="#1a46b0" cx="490.9" cy="168.3" r="6.7"/>
<path fill="#1a46b0" d="M489.8 44.6 Q475.5 32.9 459.9 46.5 Q477.2 58.0 489.8 44.6Z"/>
<path fill="#1a46b0" d="M471.4 82.3 Q468.5 101.8 489.5 108.7 Q490.6 86.6 471.4 82.3Z"/>
<path fill="#1a46b0" d="M457.9 128.2 Q443.9 123.5 436.0 138.1 Q452.2 141.9 457.9 128.2Z"/>
<path fill="#1a46b0" d="M461.8 169.5 Q469.1 179.4 481.4 173.2 Q472.1 162.9 461.8 169.5Z"/>
<path fill="#1f5fd8" d="M533.7 56.5 Q541.0 69.3 556.6 63.6 Q547.0 50.0 533.7 56.5Z"/>
<path fill="#1f5fd8" d="M533.7 56.5 Q523.8 67.4 534.0 80.5 Q543.9 67.1 533.7 56.5Z"/>
<path fill="#1f5fd8" d="M533.7 56.5 Q520.2 50.4 511.0 64.2 Q526.7 69.5 533.7 56.5Z"/>
<path fill="#1f5fd8" d="M533.7 56.5 Q535.3 41.8 519.3 37.3 Q519.1 53.9 533.7 56.5Z"/>
<path fill="#1f5fd8" d="M533.7 56.5 Q548.1 53.5 547.5 36.9 Q531.7 41.8 533.7 56.5Z"/>
<circle cx="533.7" cy="56.5" r="5" fill="#ffffff"/>
</svg>